<?xml version="1.0" encoding="iso-8859-1"?>
<!-- Generator: Adobe Illustrator 19.0.0, SVG Export Plug-In . SVG Version: 6.00 Build 0)  -->
<svg version="1.1" id="Capa_1" xmlns="http://www.w3.org/2000/svg" xmlns:xlink="http://www.w3.org/1999/xlink" x="0px" y="0px"
	 viewBox="0 0 368 368" style="enable-background:new 0 0 368 368;" xml:space="preserve">
<g>
	<g>
		<g>
			<path d="M352,144.984V88c0-22.056-17.944-40-40-40h-32.304C257.152,17.944,221.792,0,184,0c-37.8,0-73.176,17.952-95.704,48H56
				c-22.056,0-40,17.944-40,40v56.992C5.824,155.336,0,169.32,0,184c0,30.88,25.12,56,56,56h8v8c0,66.168,53.832,120,120,120
				s120-53.832,120-120v-8h8c30.88,0,56-25.12,56-56C368,169.296,362.16,155.296,352,144.984z M64,224h-8c-22.056,0-40-17.944-40-40
				c0-11.376,4.848-22.2,13.368-29.752C36.664,147.64,46.128,144,56,144h8V224z M77.384,65.112
				c-1.936,3.744-3.696,7.568-5.224,11.48c-0.264,0.68-0.48,1.368-0.736,2.056c-1.336,3.616-2.488,7.288-3.464,11.016
				c-0.176,0.68-0.384,1.336-0.552,2.016c-0.992,4.096-1.744,8.256-2.296,12.456c-0.12,0.92-0.216,1.848-0.32,2.776
				C64.32,111.24,64,115.6,64,120v8h-8c-1.936,0-3.864,0.128-5.776,0.32c-0.592,0.064-1.184,0.168-1.776,0.248
				c-1.328,0.184-2.648,0.392-3.952,0.664c-0.656,0.136-1.296,0.296-1.944,0.456c-1.264,0.312-2.512,0.672-3.744,1.072
				c-0.592,0.192-1.192,0.376-1.776,0.592c-1.392,0.504-2.76,1.072-4.112,1.688c-0.304,0.136-0.624,0.24-0.928,0.384V88H32
				c0-13.232,10.768-24,24-24h21.888C77.696,64.36,77.568,64.752,77.384,65.112z M288,136v96v16c0,57.344-46.656,104-104,104
				S80,305.344,80,248v-16v-96v-16c0-2.672,0.104-5.336,0.304-7.976c1.208-15.848,6-31.072,14.096-44.744
				c1.344-2.272,2.784-4.504,4.312-6.688c0-0.008,0.008-0.008,0.008-0.008c0.008-0.008,0.008-0.016,0.008-0.016
				C118.104,32.664,149.984,16,184,16s65.88,16.656,85.28,44.576c0,0.008,0.008,0.008,0.008,0.016
				c7.648,10.928,13.048,23.048,16.024,35.824C287.088,104.08,288,111.976,288,120V136z M303.208,106.912
				c-0.104-0.928-0.192-1.848-0.32-2.768c-0.56-4.208-1.304-8.368-2.296-12.464c-0.16-0.672-0.368-1.32-0.544-1.992
				c-0.976-3.752-2.144-7.448-3.488-11.088c-0.24-0.656-0.456-1.328-0.712-1.984c-1.528-3.928-3.296-7.768-5.248-11.528
				c-0.184-0.352-0.312-0.736-0.496-1.088H312c13.232,0,24,10.768,24,24v45.424c-0.376-0.176-0.768-0.304-1.144-0.472
				c-1.264-0.568-2.536-1.104-3.84-1.576c-0.624-0.224-1.256-0.424-1.888-0.632c-1.208-0.392-2.424-0.736-3.656-1.048
				c-0.664-0.168-1.32-0.328-1.992-0.464c-1.296-0.272-2.6-0.48-3.92-0.664c-0.6-0.08-1.184-0.184-1.784-0.248
				c-1.912-0.192-3.84-0.32-5.776-0.32h-8v-8C304,115.592,303.68,111.24,303.208,106.912z M312,224h-8v-80h8
				c9.872,0,19.336,3.64,26.696,10.312C347.152,161.8,352,172.624,352,184C352,206.056,334.056,224,312,224z"/>
			<path d="M200,176h-8v-40c0-4.416-3.584-8-8-8c-4.416,0-8,3.584-8,8v40h-8c-30.88,0-56,25.12-56,56c0,4.416,3.584,8,8,8h128
				c4.416,0,8-3.584,8-8C256,201.12,230.88,176,200,176z M128.808,224c3.712-18.232,19.88-32,39.192-32h32
				c19.32,0,35.48,13.768,39.192,32H128.808z"/>
			<path d="M219.656,272.96c-3.856-2-8.672-0.488-10.76,3.36C208.64,276.792,202.384,288,184,288c-18.224,0-24.528-11-24.888-11.664
				c-2-3.88-6.76-5.456-10.688-3.488c-3.952,1.976-5.552,6.784-3.576,10.736C145.264,284.408,155.384,304,184,304
				c28.616,0,38.736-19.592,39.16-20.424C225.112,279.664,223.536,274.976,219.656,272.96z"/>
			<circle cx="240" cy="144" r="16"/>
			<circle cx="128" cy="144" r="16"/>
		</g>
	</g>
</g>
<g>
</g>
<g>
</g>
<g>
</g>
<g>
</g>
<g>
</g>
<g>
</g>
<g>
</g>
<g>
</g>
<g>
</g>
<g>
</g>
<g>
</g>
<g>
</g>
<g>
</g>
<g>
</g>
<g>
</g>
</svg>
